<svg xmlns="http://www.w3.org/2000/svg" viewBox="0 0 512 512">
  <rect width="512" height="512" rx="108" fill="#2563eb"/>
  <g transform="translate(256,240)" fill="none" stroke="white" stroke-width="32" stroke-linecap="round" stroke-linejoin="round">
    <path d="M0-120 C66-120 120-66 120 0 C120 80-0 160-0 160 C0 160-120 80-120 0 C-120-66-66-120 0-120Z" fill="white" fill-opacity="0.15"/>
    <circle cx="0" cy="0" r="44" fill="white"/>
    <path d="M0-120 C66-120 120-66 120 0 C120 80 0 160 0 160 C0 160-120 80-120 0 C-120-66-66-120 0-120Z"/>
  </g>
</svg>
